<?xml version="1.0" encoding="UTF-8" standalone="no"?>
<svg
   xmlns:dc="http://purl.org/dc/elements/1.1/"
   xmlns:cc="http://creativecommons.org/ns#"
   xmlns:rdf="http://www.w3.org/1999/02/22-rdf-syntax-ns#"
   xmlns:svg="http://www.w3.org/2000/svg"
   xmlns="http://www.w3.org/2000/svg"
   width="541.55859mm"
   height="114.66691mm"
   viewBox="0 0 541.55859 114.66691"
   version="1.1"
   id="svg8">
  <defs
     id="defs2">
    <rect
       x="-143.66006"
       y="-82.347206"
       width="301.64139"
       height="217.95158"
       id="rect882" />
    <rect
       x="950.51538"
       y="-25.689606"
       width="369.18448"
       height="175.68375"
       id="rect847" />
    <rect
       x="-143.66006"
       y="-82.347206"
       width="301.64139"
       height="217.95158"
       id="rect882-9" />
    <rect
       x="950.51538"
       y="-25.689606"
       width="369.18448"
       height="175.68375"
       id="rect847-9" />
  </defs>
  <metadata
     id="metadata5">
    <rdf:RDF>
      <cc:Work
         rdf:about="">
        <dc:format>image/svg+xml</dc:format>
        <dc:type
           rdf:resource="http://purl.org/dc/dcmitype/StillImage" />
        <dc:title></dc:title>
      </cc:Work>
    </rdf:RDF>
  </metadata>
  <g
     id="layer1"
     transform="translate(-159.73551,-317.68771)">
    <path
       style="clip-rule:evenodd;fill:#186638;fill-opacity:1;fill-rule:evenodd;stroke-width:9.33346"
       d="M 217.16449,317.68771 H 648.3086 c 31.7112,0 52.98553,25.67156 52.98553,57.33654 0,31.66805 -25.71162,57.33037 -57.42898,57.33037 H 217.16449 c -31.71428,0 -57.42898,-25.66232 -57.42898,-57.33037 0,-31.66498 25.71161,-57.33654 57.42898,-57.33654 z"
       id="path263" />
    <g
       id="g1108">
      <path
         style="clip-rule:evenodd;fill:#ffffff;fill-rule:evenodd;stroke-width:9.33346"
         d="m 295.06353,387.03882 v -50.02426 h -20.38995 v 54.37527 c 0,30.46629 58.27946,32.01934 58.32568,0 v -54.37527 h -20.36222 v 50.02426 c 0.003,11.26578 -17.57351,11.15177 -17.57351,0 z m 47.2602,25.74551 v -75.76977 h 35.82801 c 27.34479,-0.077 28.65749,29.72675 13.54914,35.44284 20.62414,4.83171 20.89223,40.32693 -7.62043,40.32693 z m 20.88298,-46.61309 h 10.67106 c 7.2599,0 7.13972,-9.269 0,-9.269 h -10.67106 z m 14.39962,27.64985 c 9.49394,0 9.82674,-13.06535 0,-13.06535 h -14.39962 v 13.06535 z m -184.19982,9.77436 c 3.12459,1.40206 20.88915,11.6109 41.02642,11.6109 23.58233,0 34.68788,-12.78802 34.67247,-25.25864 -0.0123,-13.45053 -8.32916,-19.36075 -18.84614,-21.74271 -7.66357,-1.73486 -20.04483,-1.41439 -20.02943,-8.57568 0.0185,-7.34925 14.96969,-7.41705 25.30795,0.10785 l 6.2461,-17.31158 c -7.32153,-4.3017 -16.4796,-7.84537 -25.52365,-7.84537 -18.63044,0 -28.6051,12.14707 -28.64516,24.72555 -0.0431,14.51363 12.72023,20.79054 23.25879,22.78732 9.04713,1.7287 14.86183,3.33413 14.86183,7.63892 0,7.52181 -18.84307,9.5679 -45.44214,-3.54983 l 3.98431,-9.88838 c -4.20001,3.8703 -17.33623,8.92388 -31.55096,7.31228 3.33721,3.11843 14.21165,13.75868 16.79698,30.20746 z"
         id="path265" />
      <g
         id="g1102">
        <path
           style="clip-rule:evenodd;fill:#ffe500;fill-opacity:1;fill-rule:evenodd;stroke-width:9.33346"
           d="m 657.90116,359.39821 c -2.69627,-2.15085 -6.48646,-5.04741 -11.76498,-5.04741 -18.29765,0 -4.11682,30.14582 -31.31985,32.80511 v 25.62534 H 593.66834 V 386.5273 c -8.23364,-0.42216 -13.90967,-7.91316 -15.49045,-21.58864 -1.60236,-13.78332 -4.89334,-23.61623 -15.19155,-27.93026 h 24.75945 c 3.81483,2.8904 8.31683,8.95469 10.04553,24.75637 0.35436,3.2725 1.93823,9.78668 8.39695,9.78668 15.40108,0 2.62539,-37.22391 37.79706,-37.30403 9.91919,-0.0246 18.07886,4.87794 24.42973,9.71581 l 7.3431,-10.79123 c -1.18636,10.53547 1.88276,26.92879 9.52784,35.52911 -9.69116,-4.03362 -25.35725,-3.8703 -33.27041,0.75188 z"
           id="path267" />
        <path
           style="clip-rule:evenodd;fill:#ffe500;fill-opacity:1;fill-rule:evenodd;stroke-width:9.33346"
           d="m 567.42671,358.89286 v 53.89147 h -20.34989 v -22.32818 h -18.38701 v 22.32818 h -20.37147 v -53.89147 c 0,-33.65252 58.84953,-31.97004 59.10837,0 z m -38.74923,2.31108 v 11.03159 h 18.36236 v -11.14868 c 0,-11.44759 -18.36236,-11.49689 -18.36236,0.11709 z m -28.7376,32.95303 c 0,23.34506 -36.04372,27.98572 -44.15717,8.95469 -8.11346,19.03103 -44.26195,14.32874 -44.26195,-9.004 l 0.006,-57.09618 h 20.31291 v 50.52345 c 0,4.086 3.18006,6.73605 7.08426,6.73605 3.91344,0 7.09657,-2.83493 7.09657,-6.92093 l 0.0123,-50.33549 h 19.46244 l -0.0123,50.58508 c 0,4.086 3.15232,6.67442 7.06576,6.67442 3.90728,0 7.09042,-2.67778 7.09042,-6.76378 v -50.49572 h 20.29443 z"
           id="path269" />
      </g>
    </g>
  </g>
</svg>
